<?xml version="1.0" encoding="utf-8"?>
<!-- Generator: Adobe Illustrator 22.1.0, SVG Export Plug-In . SVG Version: 6.00 Build 0)  -->
<svg version="1.1" id="Layer_1" xmlns="http://www.w3.org/2000/svg" xmlns:xlink="http://www.w3.org/1999/xlink" x="0px" y="0px"
	 viewBox="0 0 1286.5 924.3" style="enable-background:new 0 0 1286.5 924.3;" xml:space="preserve">
<style type="text/css">
	.st0{fill:#90A5A5;}
	.st1{fill:#7D9190;}
	.st2{fill:#647776;}
	.st3{fill:#FFFFFF;}
	.st4{opacity:5.000000e-02;}
	.st5{opacity:0.6;fill:#FFFFFF;enable-background:new    ;}
	.st6{fill:#97AEAF;}
	.st7{fill:#AAC1C1;}
	.st8{fill:#B4CCCA;}
	.st9{fill:#EAE6CC;}
	.st10{fill:#D3CEB6;}
	.st11{fill:#A1B7B7;}
	.st12{fill:#513E32;}
	.st13{fill:#423229;}
	.st14{fill:#634F3F;}
	.st15{fill:#776255;}
</style>
<g id="Platyphant_Icon">
	<g>
		<path class="st0" d="M593,185.8l49.9,282L530.1,823.5c0,0-66.4-23.3-136.2-24.4s-107.1-53.6-129.2-88.5s-71-92-117.8-124.6
			C124.3,570.2,93,540.5,65,506.2c15.2-13.2,27-30.6,27-30.6s-10.3,11.8-30.9,25.8c-0.2-0.2-0.4-0.5-0.5-0.7c1.2-1.6,2-4.3,1.6-6.1
			c2.3-1.7,14.7-13,26.3-25.9c3.2-3.3,6.1-6.4,8.4-9.1c-16.3,11.2-32.8,17.7-40.3,21.2c-8.3,3.8-6.1,0.1-5.7-0.5
			c0,0-0.1,0.1-0.1,0.2c-1.2,1.6-3.9,1.9-3.9,1.9s1.8-1.8,1-3.8c-0.6-1.6,12.3-6.7,23.9-14.7c-9.3,3.1-20.3,6-32.3,8.2
			c-18.3-27-32.5-54.7-37.7-79.4C-12.5,324.4,57.4,256.5,84.3,228s60.4-95,95.3-116.8c35-21.7,87.4-50.2,150.3-79.3
			s119.9-43.1,165.3-21.1C540.6,32.7,572,105.2,593,185.8z M1276.4,339.4c-17.5-22-59.4-75.8-88.5-128.3
			c-29.1-52.4-96.6-98.9-193.3-141.8S865.4,14.4,834,23.7C802.5,33,742,91.2,711.7,169l-68.8,232.7c0,0,108.4,430,139.8,403.2
			s100.1-17.5,145.5-27.9s62.9-62.9,78-101.3c6-15.3,22.7-32.9,42.4-49.5c-0.3-37.5-2.4-78.4-7.2-96.3
			c12.9,25.8,17.3,58.7,22.1,84.3c24.5-18.8,50.8-34.9,66.2-42.8c-8.6-51.8-26.3-111.4-26.3-134.9c8.1,35.8,21.7,64.1,32.8,90.6
			c-9.5-32.1-18-52.5-18-52.5s14.9,34.4,20.2,45.9c4.2,9.3,10.9,26.1,13.7,37.3c19.6-14.8,40.9-37.5,71-64.9
			c-8.6-14.5-19.2-27-19.2-27s15.2,14.6,22.5,24.1c4.8-4.3,9.8-8.7,15.1-13.3C1292.7,432.7,1293.8,361.3,1276.4,339.4z"/>
		<path class="st1" d="M533.3,206.3c-26.7-99.1-89.7-118-179.3-83.4s-130.6,96-168.3,119.6S110.1,354.2,129,379.4
			s67.6,73.9,116.4,89.7c48.8,15.7,73.9,20.5,96,34.6c22,14.2-3.1,207.7,129,122.7S533.3,206.3,533.3,206.3z"/>
		<path class="st1" d="M822.8,613.8c56.6,20.5,96,20.5,132.2-61.4s12.6-108.6,56.6-127.4c44.1-18.9,182.5-66.1,133.7-121.1
			S1008.4,237.8,958.1,167c-29.1-40.9-92.8-97.5-201.4,0S822.8,613.8,822.8,613.8z"/>
		<path class="st2" d="M538,798.7l-7.9,24.8l0,0l0,0c0,0,0,0-0.1,0h-0.1c0,0-0.1,0-0.2-0.1h-0.1c-0.1,0-0.1,0-0.2-0.1h-0.1
			c-0.1,0-0.2-0.1-0.3-0.1s-0.2-0.1-0.2-0.1c-0.1,0-0.1,0-0.2-0.1c-0.1,0-0.3-0.1-0.4-0.1c-0.1,0-0.2-0.1-0.2-0.1
			c-0.1,0-0.2-0.1-0.3-0.1s-0.1,0-0.2-0.1c-0.2-0.1-0.4-0.1-0.6-0.2c-0.1,0-0.2-0.1-0.3-0.1s-0.3-0.1-0.4-0.1
			c-0.1,0-0.2-0.1-0.3-0.1c-0.5-0.2-1.1-0.3-1.6-0.5c-0.1,0-0.2,0-0.2-0.1c-0.6-0.2-1.3-0.4-2-0.6c-0.1,0-0.1,0-0.2-0.1
			c-0.8-0.2-1.5-0.5-2.4-0.7h-0.1c-0.9-0.3-1.8-0.5-2.7-0.8h-0.1c-1-0.3-2-0.6-3.1-0.9h-0.1c-1.1-0.3-2.2-0.6-3.4-1l0,0
			c-5.2-1.4-11.2-3-17.8-4.7l0,0c-1.5-0.4-3.1-0.7-4.7-1.1h-0.1c-1.6-0.4-3.2-0.7-4.8-1.1c-0.1,0-0.1,0-0.2,0
			c-1.6-0.4-3.2-0.7-4.9-1.1c-0.1,0-0.2,0-0.3-0.1c-1.6-0.3-3.3-0.7-5-1c-0.1,0-0.3-0.1-0.4-0.1c-1.6-0.3-3.3-0.7-5-1
			c-0.2,0-0.4-0.1-0.6-0.1c-1.6-0.3-3.3-0.6-5-0.9c-0.2,0-0.5-0.1-0.7-0.1c-0.5-0.1-1.1-0.2-1.6-0.3c4.6-15.7,15.9-33.8,15.9-33.8
			c-17.5,11.7-39.2,21.4-57.3,28.3l0,0c-1.9-0.2-3.7-0.3-5.6-0.4c-0.1,0-0.3,0-0.4,0c-1.8-0.1-3.6-0.2-5.4-0.3c-0.2,0-0.4,0-0.6,0
			c-1.8-0.1-3.6-0.2-5.3-0.2c-0.2,0-0.4,0-0.6,0c-1.8-0.1-3.7-0.1-5.5-0.1c-1,0-2,0-3-0.1c-0.3,0-0.6,0-0.9,0c-0.7,0-1.3-0.1-2-0.1
			c-0.4,0-0.7,0-1.1-0.1c-0.6,0-1.3-0.1-1.9-0.1c-0.3,0-0.7-0.1-1-0.1c-0.8-0.1-1.6-0.2-2.4-0.2c-0.3,0-0.7-0.1-1-0.1
			c-0.7-0.1-1.4-0.2-2-0.2c-0.4-0.1-0.8-0.1-1.3-0.2c-0.5-0.1-1-0.1-1.4-0.2c-0.5-0.1-0.9-0.1-1.4-0.2c-0.4-0.1-0.8-0.1-1.3-0.2
			c-0.5-0.1-1-0.2-1.4-0.3c-0.3-0.1-0.7-0.1-1-0.2c-1.1-0.2-2.1-0.4-3.1-0.7c-0.2-0.1-0.5-0.1-0.7-0.2c-0.6-0.1-1.1-0.3-1.7-0.4
			c-0.3-0.1-0.5-0.1-0.8-0.2c-0.6-0.1-1.2-0.3-1.7-0.4c-0.2-0.1-0.4-0.1-0.6-0.2c-2.1-0.6-4.2-1.2-6.2-1.8L449,670.2
			c0,0-16.7-14.7-15.1-29.5c1.6-14.7-3.1-36.9-14-69.1c-10.9-32.2,6.6-69.9,6.6-69.9s-18.2-15.9-18.6-39.6s27.2-69.9,36.1-85
			c0.6-1.1,1.3-2.3,2.1-3.8c-30.7-74.6,35.2-190.4,47.3-208.9c12.2-18.6,36.7-22.7,81.5-32c0.6-0.1,1.3-0.3,1.9-0.4
			c5.9,17.1,11.3,35.2,16.1,53.7l39.5,223.1c-12.5,0.7-25,1.2-37.1,1.4c-14.7,99.9-29.5,200.1-29.5,200.1L538,798.7z M785,803.1
			c0.4-0.3,0.8-0.6,1.2-0.9c0.2-0.2,0.4-0.3,0.6-0.4c0.4-0.3,0.8-0.6,1.2-0.8c0.2-0.1,0.4-0.3,0.6-0.4c0.5-0.3,1-0.6,1.5-0.9
			c0.1-0.1,0.3-0.2,0.4-0.2c0.7-0.4,1.3-0.8,2-1.1c0.1,0,0.2-0.1,0.3-0.1c0.6-0.3,1.2-0.6,1.8-0.9c0.2-0.1,0.4-0.2,0.5-0.3
			c0.5-0.3,1.1-0.5,1.6-0.8c0.2-0.1,0.4-0.2,0.6-0.3c0.6-0.3,1.2-0.5,1.8-0.8c0.1-0.1,0.3-0.1,0.4-0.2c1.5-0.6,3.1-1.2,4.7-1.8h0.1
			c0.8-0.3,1.5-0.5,2.3-0.8c0.1,0,0.2-0.1,0.3-0.1c0.7-0.2,1.5-0.5,2.2-0.7c0.1,0,0.1,0,0.2-0.1c3.4-1,7-1.9,10.6-2.6
			c-4.6-17.2-4.2-40.5-4.2-40.5s18.8,17.4,49.9,35.2l0,0c2.6-0.2,5.3-0.3,7.9-0.5c0.8-0.1,1.6-0.1,2.4-0.2c0.1,0,0.1,0,0.2,0
			c10.5-0.7,20.8-1.4,30.6-2.5c4.6-17.2-1.5-47.3-14.9-72.8c-23.3-44.2-14-111.2-9.9-138.5c4.1-27.4,11.6-46.6-1.7-82.7
			c24.4-25,15.1-50.6-12.2-97.2c-4.6-7.8-8.8-15.1-12.8-22c6.9-25.9,5.3-64.6-9.9-121.2c-18.6-69.3-23.3-84.4-65.8-101.9
			c-16.5-6.8-33.8-11.9-48.9-15.6c-7.2,12.7-13.7,26.2-19.2,40.4l-68.8,232.7c0,0,0.6,2.3,1.6,6.5c24.8-1.6,49.6-3.9,72.9-6.5
			l40.2,239.7l15.6,161.1c0.7,0.7,1.3,1.3,2,1.8l0,0c0.6,0.5,1.3,0.9,1.9,1.2c0,0,0,0,0.1,0c0.4,0.2,0.8,0.3,1.2,0.4l0,0
			c0.2,0,0.3,0.1,0.5,0.1h0.1c0.2,0,0.4,0,0.5,0l0,0c0.2,0,0.4,0,0.5,0h0.1c0.1,0,0.3,0,0.4-0.1h0.1c0.2,0,0.3-0.1,0.5-0.1l0,0
			c0.2-0.1,0.3-0.1,0.5-0.2c0,0,0.1,0,0.1-0.1c0.1-0.1,0.2-0.1,0.4-0.2l0.1-0.1c0.2-0.1,0.3-0.2,0.5-0.3c0.6-0.5,1.1-0.9,1.7-1.4
			C784.6,803.4,784.8,803.2,785,803.1z"/>
		<path class="st3" d="M860.2,688.8c-6.1,0-12.4-0.7-18.9-2l0.1-0.6c33.9,6.9,61-4.1,83.1-33.5c19-25.3,30.7-59.5,41.1-89.6
			c2-5.9,4-11.5,5.9-16.8c4.5-12.5,7.7-24.7,10.9-36.5c9.8-36.6,18.2-68.3,57.6-89.4c14-7.5,30.2-14.3,46-20.9
			c21.4-9,43.5-18.2,60.2-29.4c18.6-12.5,28.3-26,29.6-41.5c2.5-30.5-57.4-60.9-110.3-87.8c-28.8-14.6-56-28.4-70.5-40.8
			c-17.3-14.9-27.2-30.3-36.7-45.3c-13.1-20.5-24.3-38.2-51.7-49c-51.6-20.3-105.2,16.2-141,45.4l-0.4-0.5
			c35.9-29.3,89.6-65.9,141.5-45.4c27.5,10.8,38.9,28.6,52,49.2c9.5,14.9,19.3,30.3,36.6,45.1c14.4,12.4,41.6,26.2,70.3,40.8
			c53,26.9,113.1,57.4,110.6,88.3c-1.3,15.6-11,29.3-29.8,41.9c-16.7,11.2-38.8,20.5-60.3,29.4c-15.7,6.6-32,13.4-45.9,20.9
			c-39.1,21-47.5,52.5-57.3,89.1c-3.2,11.8-6.4,24-10.9,36.5c-1.9,5.3-3.8,10.9-5.9,16.8c-10.4,30.2-22.2,64.4-41.2,89.8
			C907,677,885.7,688.8,860.2,688.8z"/>
		<path class="st3" d="M435.2,728.3c-27.5-4.5-50-22.7-68.8-55.7c-16-28.1-26.4-62-34.7-89.2c-0.7-2.3-1.4-4.5-2.1-6.7
			c-8.3-26.8-15-46.9-27.1-62.8c-12.2-16-29.2-26.9-57.1-36.6c-11.3-3.9-24.2-7.3-37.9-11c-27-7.2-57.6-15.3-81.4-29.2
			c-27.3-16-41.4-37.4-43.3-65.4c-1.3-18.8,6-41.3,21.7-66.8c14.3-23.4,35.7-49.1,61.9-74.4c52.6-50.8,119.7-96,179.7-121
			c112.1-46.8,142.6-5.7,177.8,41.9c3.4,4.6,6.9,9.3,10.5,14l-0.5,0.4c-3.6-4.7-7.1-9.5-10.5-14c-17.5-23.6-34-45.9-59.9-56.2
			c-28.8-11.5-66.1-6.9-117.3,14.5c-59.9,25-127,70.2-179.5,120.9c-26.2,25.3-47.6,51-61.9,74.3c-15.6,25.4-22.8,47.8-21.6,66.5
			c1.9,27.8,15.9,49,43,64.9c23.7,13.9,54.3,22,81.2,29.2c13.7,3.6,26.6,7.1,38,11c28,9.7,45.2,20.7,57.4,36.8
			c12.1,15.9,18.9,36.1,27.2,63c0.7,2.2,1.4,4.4,2.1,6.7c8.3,27.2,18.7,61,34.7,89c18.7,32.9,41.1,51,68.4,55.4L435.2,728.3z"/>
		<g class="st4">
			<path class="st3" d="M860.1,689.4c-6,0-12.2-0.6-18.9-2l0.3-1.7c33.6,6.8,60.6-4.1,82.5-33.3c18.9-25.3,30.7-59.4,41-89.4
				c2-5.9,4-11.5,5.9-16.8c4.5-12.4,7.7-24.6,10.9-36.4c9.8-36.8,18.3-68.5,57.8-89.8c14-7.5,30.3-14.3,46-20.9
				c21.4-8.9,43.4-18.2,60.1-29.3c18.5-12.4,28.1-25.8,29.3-41c2.5-30.1-57.3-60.4-110-87.2c-28.8-14.6-56.1-28.4-70.6-40.9
				c-17.4-14.9-27.3-30.4-36.8-45.4c-13-20.4-24.2-38.1-51.4-48.8c-51.3-20.2-104.7,16.2-140.4,45.3l-1.1-1.4
				c36-29.4,89.9-66.1,142.1-45.5c27.7,10.9,39.6,29.6,52.3,49.4c9.5,14.9,19.3,30.3,36.5,45c14.4,12.3,41.5,26.1,70.2,40.7
				c27,13.7,55,27.9,76.3,42.7c24.5,17,35.8,32.1,34.6,46.2c-1.3,15.8-11.1,29.7-30.1,42.3c-16.7,11.2-38.9,20.5-60.4,29.5
				c-15.7,6.6-31.9,13.4-45.9,20.9c-38.9,20.9-47.3,52.3-57,88.7c-3.2,11.8-6.4,24.1-10.9,36.6c-1.9,5.3-3.8,10.9-5.9,16.8
				C948.1,617.4,923.3,689.4,860.1,689.4z"/>
			<path class="st3" d="M435.1,728.9c-27.7-4.5-50.4-22.8-69.2-56c-16-28.1-26.4-62-34.8-89.3c-0.7-2.3-1.4-4.5-2.1-6.7
				c-8.2-26.7-15-46.8-27-62.6c-12-15.8-29-26.7-56.8-36.3c-11.3-3.9-24.2-7.3-37.9-11c-27.1-7.2-57.7-15.3-81.5-29.3
				c-27.4-16.2-41.7-37.7-43.6-65.9c-1.3-18.9,6-41.5,21.8-67.1c14.3-23.4,35.8-49.2,62-74.6C218.6,179.3,285.8,134,345.8,109
				c112.6-46.9,143.1-5.7,178.5,42.1c3.4,4.6,6.9,9.3,10.5,14l-1.4,1.1c-3.6-4.7-7.1-9.5-10.5-14.1c-17.4-23.5-33.9-45.8-59.6-56
				c-28.7-11.4-65.8-6.8-116.8,14.5c-59.8,24.9-126.9,70.1-179.3,120.8C111.9,284.9,81.5,336,83.9,371.8
				c1.9,27.6,15.8,48.6,42.7,64.5c23.6,13.9,54.1,22,81.1,29.1c13.7,3.6,26.7,7.1,38,11c28.1,9.8,45.4,20.8,57.7,37
				c12.2,16,19,36.2,27.3,63.1c0.7,2.2,1.4,4.4,2.1,6.7c8.3,27.2,18.7,60.9,34.6,88.9c18.6,32.7,40.9,50.7,68,55.1L435.1,728.9z"/>
		</g>
		<path class="st5" d="M402.1,755.3c-37.6-23-61.1-107.6-75.1-158.1c-4.7-16.9-8.4-30.3-11.2-36.2c-11.9-25.1-48-55.6-113.7-66
			c-67.6-10.8-104.9-24-105.3-24.1l-0.7-0.3l0.5-0.6c0.1-0.1,10.4-13.8,12.2-26c-9.8,6.7-19.4,7.1-19.8,7.1h-0.3l-0.2-0.3
			c-0.2-0.3-22.2-35-25.7-61.2c-3.8-20.1,1.4-43.1,15.5-68.4c11.8-21.2,29.9-44.2,53.8-68.4c47.8-48.3,104.5-87,120.7-97.7
			c14.2-9.4,29.9-21.2,46.6-33.7c22.2-16.7,45.1-34,66.4-46.8c24.2-14.5,42.5-20.9,55.9-19.3c18.2,2.1,37.8,14.2,59.8,37
			c17.6,18.2,33.7,40.1,48.5,61l-1,0.7c-14.8-20.9-30.8-42.8-48.4-60.9c-21.6-22.3-41.5-34.6-59.1-36.6
			c-29.5-3.4-78.3,33.4-121.4,65.9c-16.6,12.5-32.4,24.4-46.6,33.8c-16.2,10.7-72.8,49.3-120.5,97.6c-23.8,24.1-41.9,47-53.6,68.2
			c-13.9,25.1-19.1,47.8-15.3,67.7c3.3,24.7,23.2,57,25.3,60.4c1.8-0.1,11.1-1.2,19.9-7.6l1-0.8l-0.1,1.3
			c-1,11.5-9.9,24.2-12.1,27.2c5.6,1.9,42.1,13.9,104.3,23.8c31.1,4.9,57.6,14.5,78.7,28.5c16.6,11,29.4,24.6,35.9,38.2
			c2.8,6,6.6,19.4,11.3,36.4c14,50.3,37.4,134.6,74.6,157.4L402.1,755.3z"/>
		<path class="st5" d="M882.6,737.9l-0.6-1c26.1-14.2,58.7-79.5,80.6-135.9c14-36.2,29.6-73.4,48.4-100.8
			c19.1-27.9,39.5-43.3,64.4-48.6l0.5-0.1l0.2,0.4c6.9,15.7,16.2,24.8,19.5,27.8c-3.7-18.9-1.6-57.1,6.2-75.5l0.8-1.9l0.3,2
			c4.7,29.9,15.3,49.2,17.1,52.3c3.2-1.6,22.2-11.5,49.5-34.6c30.7-26.9,45.7-54.9,44.7-83.1c-1-26.3-16.4-52.1-43.5-72.6
			c-13.2-10-35.6-28.2-61.6-49.3C1046,165.7,959.6,95.4,927.4,80.1c-25.2-12-59.3-0.2-83.5,11.9c-26.9,13.4-56.8,34.6-80,56.7
			l-0.8-0.8c23.3-22.2,53.3-43.5,80.3-56.9c24.4-12.1,58.9-24,84.5-11.9c32.3,15.3,118.7,85.7,181.9,137
			c25.9,21.1,48.3,39.3,61.5,49.3c27.3,20.7,42.9,46.8,43.9,73.5c1,28.6-14.1,56.9-45.1,84c-30,25.4-50,34.9-50.2,35l-0.5,0.2
			l-0.3-0.4c-0.1-0.2-11.8-19.4-17.2-51.1c-7.3,19.4-9,57.1-5,74.5l0.4,1.6l-1.3-1c-0.1-0.1-12.3-9.5-20.9-28.9
			c-24.4,5.3-44.5,20.5-63.2,48c-18.7,27.3-34.2,64.5-48.3,100.6c-14.7,37.7-30.3,70.5-45.1,94.6
			C905.2,717.8,892.8,732.3,882.6,737.9z"/>
		<path class="st2" d="M880.9,598.8c-3.8,0-7.4-0.9-10.5-2.7l0.6-1c6.2,3.6,14.1,3.4,23-0.6c27.4-12.1,64.3-60.4,78.5-125.9
			c11.8-54.1,58.9-86.5,93.3-110.1c19.1-13.1,34.2-23.5,37.6-33.4c5.7-16.4-7.8-35.5-20-48.7c-15.5-16.7-38.9-34.5-65.9-50
			c-28.2-16.3-46-34.3-63.2-51.6c-14.2-14.3-27.6-27.9-46.1-39.9s-41-15.6-66.8-10.7c-27.4,5.2-49.3,18.3-60,25.6l-0.7-1
			c33.8-23.3,87.7-41.2,128.1-14.9c18.6,12.1,32.1,25.7,46.3,40.1c17.1,17.3,34.9,35.2,63,51.4c27,15.6,50.5,33.5,66.1,50.2
			c17.9,19.3,24.9,36.5,20.3,49.9c-3.6,10.3-18.8,20.8-38.1,34c-34.3,23.5-81.2,55.7-92.9,109.4c-8.2,37.9-23,65.8-34,82.6
			c-14.1,21.6-30.6,37.7-45.2,44.1C889.6,597.7,885.1,598.8,880.9,598.8z"/>
		<path class="st2" d="M426.5,610.5c-4.7,0-9.1-1.1-13.2-3.2c-19.5-10.1-29-43.1-37.4-72.3c-3.8-13.1-7.4-25.6-11.6-35.4
			c-9-20.9-43.4-34.1-79.9-48c-35-13.4-71.2-27.2-93.4-49.7c-20.8-21.1-26-44.1-16-70.5c8.9-23.3,28.5-45.8,46.2-65
			c11.8-12.9,19.7-25.6,28-39c16.9-27.4,34.4-55.8,88.2-85.4c45.2-24.9,82.9-25.5,106.5-21.6c27.4,4.5,51.8,17.7,65.4,35.5l-0.9,0.7
			c-13.4-17.5-37.5-30.6-64.6-35c-23.4-3.8-60.8-3.2-105.7,21.5c-53.5,29.4-70.9,57.7-87.8,85c-8,12.9-16.2,26.2-28.1,39.2
			c-17.6,19.2-37.2,41.6-46,64.7c-9.9,25.9-4.7,48.5,15.7,69.3c22,22.3,58.1,36.1,93,49.4c36.7,14,71.4,27.3,80.6,48.7
			c4.3,9.9,7.9,22.4,11.7,35.6c8.3,28.9,17.8,61.7,36.9,71.5c7.4,3.8,15.6,4.1,25.1,0.7l0.4,1.1
			C434.9,609.7,430.6,610.5,426.5,610.5z"/>
		<path class="st6" d="M846.8,460.3L460,474c-36.1,29.7-33.8,67.2-26.2,86.4c7.6,19.2,25.3,51.8,13.1,73.3l416.1-4.1
			c-12.2-21.5-4.1-50.6,3.5-69.9C874.1,540.6,882.9,490,846.8,460.3z"/>
		<g>
			<path class="st2" d="M869.7,489.8c-5-1.9-11.3,2.3-11.3,2.3s4.3,26.4-11.3,43.1s3.5,59.4,14,78s-12.4,21-12.4,21l-48.5-120.3
				l64-52L869.7,489.8z"/>
			<path class="st2" d="M434.9,502.2c5.8-2,11.6,0,14.6,1.7c0.9,11.4,5.8,27.6,20.1,40.7c14.3,13.1,4.9,34.3,4.9,34.3l29.4-57.3
				l-65.8-39L434.9,502.2z"/>
		</g>
		<path d="M850.9,484.7c17.5,30.9-23.9,64-23.9,64l-12.8-32.6L850.9,484.7z"/>
		<path d="M456.6,491.9c-12.1,33.3,34.1,59.2,34.1,59.2l7.2-34.3L456.6,491.9z"/>
		<path d="M848.7,486.7c19-5.8,24.4-10.9,24.4-10.9s-5,6.2-15.5,10.9l14-4.3c0,0-10.1,7-15.9,7.4c9.3,2.7,9.3,2.7,9.3,2.7
			s-14.7-1.2-16.3,5.4C847.2,504.5,848.7,486.7,848.7,486.7z"/>
		<path d="M459.2,501.5c-19-5.8-26.6-9.2-26.6-9.2s7.2,4.6,17.6,9.2l-14.4-0.2c0,0,10.6,2.9,16.4,3.3c-6.6,0.5-9.3,2.7-9.3,2.7
			s14.7-1.2,16.3,5.4C460.7,519.4,459.2,501.5,459.2,501.5z"/>
		<path class="st7" d="M451,364.4c-21-40.9,22.2-197.7,65.8-212.5c45.3-15.4,131-30.6,170.3-26.2c39.3,4.4,111.3,18.3,129.5,52.9
			c9.4,17.8,48.6,144.4,31.5,180.2c-31.1-54.1-54.8-126.5-61.5-169.4c6.1,60.2,34.4,130.2,51.9,163.2
			c28.3,53.5,59.8,80.2,37.8,111.7c-25.9,37-94.9,70.8-99.3,112.7c0,0-216.5,27.9-242.7-8.7c-26.2-36.7-50.6-50.6-70.7-61.1
			c-20.1-10.5-62.9-34.1-36.7-86.4S517.7,254,524.6,213C524.6,213,517.3,242.6,451,364.4z"/>
		<path class="st8" d="M689.5,277.2c-3.2,0-5.9-2.6-5.9-5.9s2.6-5.9,5.9-5.9s5.9,2.6,5.9,5.9S692.7,277.2,689.5,277.2z M695.2,254.4
			c3.3,0,6.1-2.7,6.1-6.1c0-3.3-2.7-6.1-6.1-6.1c-3.3,0-6.1,2.7-6.1,6.1C689.1,251.7,691.8,254.4,695.2,254.4z M697,293.9
			c0.4-0.8,0.6-1.7,0.6-2.6c0-3.3-2.7-6-6-6s-6,2.7-6,6s2.7,6,6,6c0.8,0,1.5-0.1,2.1-0.4c-0.7,1.2-1.1,2.5-1.1,4
			c0,4.3,3.5,7.8,7.8,7.8s7.8-3.5,7.8-7.8s-3.5-7.8-7.8-7.8C699.2,293.1,698.1,293.4,697,293.9z M676.1,258.7c0,3.5,2.8,6.3,6.3,6.3
			s6.3-2.8,6.3-6.3s-2.8-6.3-6.3-6.3S676.1,255.2,676.1,258.7z M644.6,314.2c2.6,0,4.7-2.1,4.7-4.7s-2.1-4.7-4.7-4.7
			c-2.6,0-4.7,2.1-4.7,4.7C639.8,312.1,642,314.2,644.6,314.2z M660.7,257.4c3.9,0,7-3.1,7-7s-3.1-7-7-7s-7,3.1-7,7
			C653.7,254.3,656.8,257.4,660.7,257.4z M666.9,225.8c3,0,5.5-2.5,5.5-5.5s-2.5-5.5-5.5-5.5s-5.5,2.5-5.5,5.5
			S663.9,225.8,666.9,225.8z M677.8,299.1c3.7,0,6.7-3,6.7-6.7s-3-6.7-6.7-6.7s-6.7,3-6.7,6.7C671.2,296.1,674.2,299.1,677.8,299.1z
			 M679.3,223.9c2.8,0,5.1-2.3,5.1-5.1s-2.3-5.1-5.1-5.1s-5.1,2.3-5.1,5.1C674.2,221.6,676.5,223.9,679.3,223.9z M611.4,314.3
			c0,4.9,4,8.9,8.9,8.9s8.9-4,8.9-8.9c0-0.2,0-0.3,0-0.5c0.6,0.2,1.2,0.3,1.8,0.3c3,0,5.4-2.4,5.4-5.4s-2.4-5.4-5.4-5.4
			c-2.5,0-4.6,1.7-5.2,4c-1.5-1.2-3.4-1.9-5.5-1.9C615.4,305.4,611.4,309.4,611.4,314.3z M615.1,278.9c4.1,0,7.5-3.3,7.5-7.5
			s-3.3-7.5-7.5-7.5c-4.1,0-7.5,3.3-7.5,7.5S611,278.9,615.1,278.9z M647.9,273.3c0-1.9-1.6-3.5-3.5-3.5s-3.5,1.6-3.5,3.5
			s1.6,3.5,3.5,3.5C646.4,276.8,647.9,275.2,647.9,273.3z M746.5,361.6c5.5,0,9.9-4.4,9.9-9.9s-4.4-9.9-9.9-9.9s-9.9,4.4-9.9,9.9
			S741,361.6,746.5,361.6z M630.6,271.4c2.4,0,4.4-2,4.4-4.4s-2-4.4-4.4-4.4s-4.4,2-4.4,4.4C626.1,269.4,628.1,271.4,630.6,271.4z
			 M583.1,356.6c0,2.5,2,4.5,4.5,4.5s4.5-2,4.5-4.5s-2-4.5-4.5-4.5S583.1,354.1,583.1,356.6z M581,376.4c0,2.2,1.8,4,4,4s4-1.8,4-4
			s-1.8-4-4-4S581,374.2,581,376.4z M597.6,327.4c4.8,0,8.8-3.9,8.8-8.8c0-4.8-3.9-8.8-8.8-8.8s-8.8,3.9-8.8,8.8
			S592.8,327.4,597.6,327.4z M655.2,308.3c3.9,0,7-3.2,7-7c0-3.9-3.2-7-7-7s-7,3.2-7,7C648.2,305.2,651.3,308.3,655.2,308.3z
			 M657.8,281.4c1.8,0,3.3-1.5,3.3-3.3s-1.5-3.3-3.3-3.3s-3.3,1.5-3.3,3.3S656,281.4,657.8,281.4z M647.8,264.3
			c1.9,0,3.4-1.5,3.4-3.4s-1.5-3.4-3.4-3.4s-3.4,1.5-3.4,3.4C644.4,262.8,645.9,264.3,647.8,264.3z M639.4,261
			c2.1,0,3.8-1.7,3.8-3.8c0-2.1-1.7-3.8-3.8-3.8s-3.8,1.7-3.8,3.8C635.6,259.3,637.3,261,639.4,261z M637.9,283.1
			c1.8,0,3.3-1.5,3.3-3.3s-1.5-3.3-3.3-3.3s-3.3,1.5-3.3,3.3C634.6,281.6,636.1,283.1,637.9,283.1z M842.1,392.5
			c0-4.4-3.6-7.9-7.9-7.9s-7.9,3.6-7.9,7.9c0,4.4,3.6,7.9,7.9,7.9S842.1,396.9,842.1,392.5z M820.9,376.7c0,4.6,3.7,8.2,8.2,8.2
			c4.6,0,8.2-3.7,8.2-8.2c0-4.6-3.7-8.2-8.2-8.2C824.5,368.5,820.9,372.2,820.9,376.7z M852.3,402.6c0-3.7-3-6.7-6.7-6.7
			s-6.7,3-6.7,6.7s3,6.7,6.7,6.7S852.3,406.3,852.3,402.6z M816.3,359.5c0,4.5,3.7,8.2,8.2,8.2s8.2-3.7,8.2-8.2s-3.7-8.2-8.2-8.2
			S816.3,355,816.3,359.5z M581.9,351.2c2.4,0,4.3-1.9,4.3-4.3s-1.9-4.3-4.3-4.3c-2.4,0-4.3,1.9-4.3,4.3
			C577.7,349.3,579.6,351.2,581.9,351.2z M824.1,413.1c0-4.4-3.6-8-8-8s-8,3.6-8,8c0,0.9,0.1,1.7,0.4,2.5c-2.8,1.2-4.7,4-4.7,7.2
			c0,4.4,3.6,7.9,7.9,7.9s7.9-3.6,7.9-7.9c0-0.8-0.1-1.7-0.4-2.4C822.1,419.2,824.1,416.4,824.1,413.1z M839.1,436
			c3.7,0,6.7-3,6.7-6.7s-3-6.7-6.7-6.7s-6.7,3-6.7,6.7C832.5,433,835.4,436,839.1,436z M863.9,413.2c1.3,0,2.5-0.6,3.3-1.4
			c0.5,1.6,2,2.9,3.8,2.9c1.4,0,2.6-0.7,3.3-1.8c-1.1-2-2.2-4-3.4-6.1c-1,0-1.9,0.4-2.6,1.1c-0.4-2-2.2-3.5-4.4-3.5
			c-2.5,0-4.5,2-4.5,4.5C859.4,411.2,861.4,413.2,863.9,413.2z M824.9,344.8c0-4.2-3.4-7.5-7.5-7.5s-7.5,3.4-7.5,7.5
			c0,4.2,3.4,7.5,7.5,7.5S824.9,349,824.9,344.8z M864.9,402.3c1,0,2-0.3,2.8-0.8c-1.8-3-3.8-6.1-5.8-9.3c-1.5,1-2.5,2.7-2.5,4.6
			C859.4,399.8,861.9,402.3,864.9,402.3z M857.6,421.1c2.2,0,4-1.8,4-4s-1.8-4-4-4s-4,1.8-4,4S855.4,421.1,857.6,421.1z
			 M796.4,410.9c5.2,0,9.5-4.2,9.5-9.5c0-5.2-4.2-9.5-9.5-9.5s-9.5,4.2-9.5,9.5C787,406.6,791.2,410.9,796.4,410.9z M769.9,236.9
			c1.9,0,3.4-1.5,3.4-3.4s-1.5-3.4-3.4-3.4s-3.4,1.5-3.4,3.4S768,236.9,769.9,236.9z M769.3,260.3c0,1.9,1.6,3.5,3.5,3.5
			s3.5-1.6,3.5-3.5s-1.6-3.5-3.5-3.5C770.8,256.8,769.3,258.4,769.3,260.3z M766.5,244.5c1.8,0,3.3-1.5,3.3-3.3s-1.5-3.3-3.3-3.3
			s-3.3,1.5-3.3,3.3S764.7,244.5,766.5,244.5z M765.1,418.6c5.5,0,9.9-4.4,9.9-9.9s-4.4-9.9-9.9-9.9s-9.9,4.4-9.9,9.9
			S759.6,418.6,765.1,418.6z M770.7,276.9c0,2.4,2,4.4,4.4,4.4s4.4-2,4.4-4.4s-2-4.4-4.4-4.4S770.7,274.5,770.7,276.9z M760.3,431.6
			c0,2.6,2.1,4.6,4.6,4.6c2.6,0,4.6-2.1,4.6-4.6c0-2.6-2.1-4.6-4.6-4.6C762.3,427,760.3,429,760.3,431.6z M806.4,326.1
			c3.4,0,6.2-2.8,6.2-6.2c0-3.4-2.8-6.2-6.2-6.2s-6.2,2.8-6.2,6.2C800.2,323.3,803,326.1,806.4,326.1z M820.9,336.9
			c3.2,0,5.8-2.6,5.8-5.8s-2.6-5.8-5.8-5.8s-5.8,2.6-5.8,5.8S817.7,336.9,820.9,336.9z M794.3,309.7c3,0,5.5-2.5,5.5-5.5
			s-2.5-5.5-5.5-5.5s-5.5,2.5-5.5,5.5C788.8,307.3,791.2,309.7,794.3,309.7z M796.9,388.4c5.2,0,9.4-4,9.8-9.1
			c5.1-0.3,9.2-4.6,9.2-9.8c0-5.4-4.4-9.8-9.8-9.8c-5.2,0-9.4,4-9.8,9.1c-5.2,0.3-9.3,4.6-9.3,9.8
			C787.1,384,791.5,388.4,796.9,388.4z M845.2,382c3,0,5.5-2.5,5.5-5.5s-2.5-5.5-5.5-5.5s-5.5,2.5-5.5,5.5S842.1,382,845.2,382z
			 M662.1,446.4c0-2.8-2.3-5.1-5.1-5.1s-5.1,2.3-5.1,5.1c0,2.8,2.3,5.1,5.1,5.1S662.1,449.2,662.1,446.4z M657.9,452.8
			c-2.4,0-4.3,1.9-4.3,4.3s1.9,4.3,4.3,4.3c2.4,0,4.3-1.9,4.3-4.3C662.2,454.8,660.3,452.8,657.9,452.8z M549.8,424.3
			c-0.7,0-1.4,0.1-2,0.3c1.5-1.7,2.4-4,2.4-6.4c0-5.4-4.4-9.8-9.8-9.8c-5.4,0-9.8,4.4-9.8,9.8s4.4,9.8,9.8,9.8
			c1.2,0,2.3-0.2,3.4-0.6c-0.9,1.2-1.5,2.8-1.5,4.5c0,4.1,3.4,7.5,7.5,7.5s7.5-3.4,7.5-7.5S553.9,424.3,549.8,424.3z M760.9,473.2
			c-5.5,0-9.9,4.4-9.9,9.9s4.4,9.9,9.9,9.9s9.9-4.4,9.9-9.9C770.8,477.6,766.3,473.2,760.9,473.2z M747.5,463.6
			c-4.1,0-7.6-2.5-9.1-6c-1,4.3-4.8,7.5-9.3,7.5c-5.3,0-9.6-4.3-9.6-9.6c0-1.3,0.3-2.5,0.7-3.6c-1.4-0.1-2.8-0.4-4-0.9
			c-0.4,4.1-3.9,7.3-8.2,7.3c-1.2,0-2.3-0.3-3.3-0.7c-1.6,0.7-3.5,1.1-5.4,1.1c-3,0-5.8-1-8-2.6c-0.5,0.1-1.1,0.2-1.7,0.2
			c-1.9,0-3.7-0.7-5.1-1.8c-0.9,0.4-1.9,0.7-3,0.9c0.9,0.9,1.4,2.2,1.4,3.6c0,2.9-2.4,5.3-5.3,5.3s-5.3-2.4-5.3-5.3
			c0-0.9,0.2-1.7,0.6-2.4c-0.9,0.8-2.2,1.4-3.5,1.4c-2.9,0-5.2-2.3-5.2-5.2c0-2.1,1.2-3.9,3-4.7c0-0.1-0.1-0.2-0.1-0.3
			c-1.6-1.1-2.7-2.9-2.7-5c0-1.7,0.8-3.3,2-4.4v-0.1c-1.6-0.8-3-1.9-4.1-3.3c-0.1,3-2.6,5.4-5.6,5.4c-2.6,0-4.8-1.8-5.4-4.2
			c-1.2,0.8-2.6,1.5-4.1,1.9c-0.3,1.2-0.9,2.4-1.8,3.2c-0.2,1.2-0.8,2.2-1.7,3c0.4-0.1,0.8-0.1,1.3-0.1c3.2,0,5.9,2.6,5.9,5.9
			c0,3.2-2.6,5.9-5.9,5.9c-0.9,0-1.8-0.2-2.5-0.6c0,0.6-0.1,1.2-0.2,1.7c0.1,0,0.1,0,0.2,0c2.4,0,4.4,2,4.4,4.4s-2,4.4-4.4,4.4
			c-1.5,0-2.8-0.8-3.6-1.9c-2.5,2.7-6,4.3-10,4.3c-7.5,0-13.6-6.1-13.6-13.6c0-1.4,0.2-2.8,0.6-4.1c-1,0.6-2.2,0.9-3.5,0.9
			c-0.1,0-0.3,0-0.4,0c-0.6,1.9-1.6,3.6-2.9,5c4.7,0.5,8.4,4.5,8.4,9.3c0,5.2-4.2,9.4-9.4,9.4c-3.7,0-6.8-2.1-8.4-5.1
			c-1.6,0.6-3.3,1-5.1,1c-7.5,0-13.6-6.1-13.6-13.6c0-1.6,0.3-3.1,0.8-4.6c-0.7-0.1-1.4-0.2-2.1-0.4c-0.3,3.9-3.1,7.1-6.8,8
			c-1.3,0.6-2.7,1-4.2,1c-5.1,0-9.3-4.2-9.3-9.3c0-4.8,3.7-8.8,8.4-9.2c0.5-0.2,1-0.3,1.6-0.4c-2.2-1.6-3.6-4.3-3.6-7.2
			c0-5,4-9,8.9-9c0.1-3.8,1.8-7.1,4.4-9.5v-0.1c0-0.4,0-0.8,0.1-1.2c-0.4,0.1-0.8,0.1-1.2,0.1c-3.2,0-5.8-2.6-5.8-5.8
			c0-3.2,2.6-5.8,5.8-5.8c2.2,0,4.2,1.3,5.1,3.1c0.3-0.3,0.5-0.5,0.8-0.7c-0.2-1-0.4-2.1-0.4-3.2c0-3.7,1.5-7.1,3.9-9.6
			c0.3-3,2.8-5.4,5.9-5.4c1.4,0,2.7,0.5,3.8,1.4c1.3,0,2.5,0.2,3.6,0.5v-0.1c-2.4-0.8-4.1-3.1-4.1-5.8c0-3.1,2.3-5.6,5.3-6
			c-2-1-3.3-3.1-3.3-5.4c0-1.1,0.3-2.1,0.8-2.9c-0.6-0.8-0.9-1.9-0.9-3c0-2.1,1.3-4,3.2-4.8c-1.9-1.6-3-4-3-6.7c0-2.8,1.3-5.3,3.4-7
			c0-0.2-0.1-0.5-0.1-0.7c0-2.9,2.3-5.2,5.2-5.2c1.2,0,2.3,0.4,3.2,1.1c1-3.8,4.4-6.5,8.4-6.5c4.8,0,8.7,3.9,8.7,8.7
			c0,0.1,0,0.3,0,0.4c0.8-2.6,2.3-4.9,4.3-6.6c-3.6-1.2-6.2-4.5-6.2-8.5c0-5,4-9,9-9s9,4,9,9c0,2-0.7,3.9-1.8,5.4
			c2,0.2,3.8,0.8,5.4,1.7c2.4-2,5.5-3.3,8.8-3.3c0.4,0,0.9,0,1.3,0.1c0.6-1.2,1.3-2.4,2.2-3.4c-0.4-1.1-0.7-2.2-0.7-3.4
			c0-5,4.1-9.1,9.1-9.1c3.9,0,7.3,2.5,8.6,6c1.7-2.7,4.7-4.5,8.2-4.5c1.4,0,2.7,0.3,3.9,0.8c1.5-2.8,4.5-4.7,7.9-4.7
			c4.3,0,7.9,3,8.7,7.1c1-0.3,2.1-0.5,3.2-0.5c1.7,0,3.2,0.4,4.6,1.1c0-0.2,0-0.4,0-0.6c0-5.5,4.4-9.9,9.9-9.9s9.9,4.4,9.9,9.9
			s-4.4,9.9-9.9,9.9c-1.7,0-3.2-0.4-4.6-1.1c0,0.2,0,0.4,0,0.6c0,2.6-1,5-2.7,6.7c0.3,0,0.5,0,0.8,0c2.1,0,4.1,0.7,5.8,1.9
			c6.4,1.1,11.3,6.7,11.3,13.4c0,1.2-0.2,2.3-0.4,3.4c0,0.1,0.1,0.2,0.1,0.4c0.2,0,0.3,0,0.5,0c5.5,0,9.9,4.4,9.9,9.9
			c0,2.2-0.7,4.2-1.9,5.8c0.1,0.5,0.1,1,0.1,1.6c0,2.5-0.7,4.8-1.8,6.7c0.2,0.5,0.2,1.1,0.2,1.6c0,0.7-0.1,1.3-0.3,1.9
			c-0.1,1.7-0.5,3.3-1.1,4.8c1.6-3.3,5-5.6,8.9-5.6c5.5,0,9.9,4.4,9.9,9.9c0,5.3-4.2,9.7-9.5,9.9c0,0.5,0.1,0.9,0.1,1.4
			c0,2-0.4,3.9-1.2,5.6c4,1.3,6.9,5,6.9,9.4c0,3.2-1.5,6-3.8,7.8c3.1,1.7,5.1,4.9,5.1,8.7c0,0.2,0,0.5,0,0.7
			c0.9,0.9,1.5,2.2,1.5,3.6c0,1.7-0.9,3.3-2.3,4.1c2.1,1.8,3.4,4.5,3.4,7.5C757.4,459.2,753,463.6,747.5,463.6z M640.9,445.5
			c-0.3,0.1-0.7,0.1-1,0.1s-0.7,0-1-0.1c0.3,0.4,0.7,0.8,1,1.2C640.2,446.3,640.5,445.9,640.9,445.5z M633.9,436.4
			c0-0.6,0.1-1.2,0.2-1.7c-0.6-0.6-1.1-1.2-1.6-1.8c-1,1.1-2.2,2.1-3.5,2.9l0,0c2.5,0,4.4,2,4.4,4.4c0,0.5-0.1,1-0.3,1.5
			c0.6,0.2,1.2,0.5,1.7,0.8c-0.3-0.7-0.5-1.4-0.5-2.2c0-0.3,0-0.6,0.1-0.9C634.1,438.5,633.9,437.5,633.9,436.4z M610.3,401.8
			c1.6,0.7,2.9,1.9,3.6,3.5c1-0.5,2.1-0.9,3.2-1.1c-0.9-1-1.7-2.1-2.3-3.3c-0.5,0.2-1,0.2-1.6,0.2c-1.2,0-2.3-0.4-3.2-1.1
			C610.1,400.6,610.2,401.2,610.3,401.8z M712.8,421.9c0.2,0,0.4,0,0.6,0c0.1,0,0.1,0,0.2,0c0.3-0.2,0.5-0.3,0.8-0.5
			c-0.5,0-1-0.1-1.5-0.1C712.9,421.5,712.9,421.7,712.8,421.9z M717.2,421.2c0.1,0,0.2,0,0.3,0.1v-0.1
			C717.4,421.2,717.3,421.2,717.2,421.2z M606,416.6c0,0.2,0,0.4,0,0.7c0.2,0.1,0.3,0.2,0.5,0.4c0-0.1,0-0.2,0-0.3
			c0-1,0.1-1.9,0.3-2.8c-0.3,0-0.6-0.1-0.9-0.2C605.9,415.1,606,415.9,606,416.6z M706,433.4c0.5,0.3,1,0.6,1.4,0.9
			c-0.4-0.5-0.8-1.1-1.1-1.8C706.3,432.8,706.2,433.1,706,433.4z M610.5,373.4c0,0.1,0,0.2,0,0.2c0.1,0,0.1,0,0.2-0.1
			C610.6,373.5,610.6,373.4,610.5,373.4z M616.1,438c2,1.3,3.4,3.5,3.4,6.1c0,0.2,0,0.3,0,0.4c1.5-1.4,3.4-2.5,5.4-3.1
			c-0.1-0.4-0.2-0.8-0.2-1.3c0-1.2,0.5-2.3,1.3-3.2c-1.2,0.3-2.4,0.5-3.6,0.5c-2.1,0-4-0.5-5.8-1.3
			C616.4,436.8,616.3,437.4,616.1,438z M738,391.5c-0.3,0.6-0.6,1.2-1,1.7c0.2,0,0.3,0.1,0.5,0.1C737.6,392.7,737.8,392.1,738,391.5
			z M708.1,342.8c0.1,0.2,0.2,0.3,0.3,0.5c0.2-0.2,0.3-0.4,0.5-0.6C708.6,342.8,708.3,342.8,708.1,342.8z M625.9,350
			c0.2,0.1,0.4,0.1,0.6,0.2c0-0.1,0-0.2,0-0.3c0-0.5,0-0.9,0.1-1.3C626.4,349.1,626.2,349.6,625.9,350z M674.1,455
			c0.1-0.1,0.3-0.2,0.4-0.4c-0.1,0-0.2-0.1-0.2-0.1C674.2,454.7,674.2,454.9,674.1,455z M740.5,446.7c-3.3-1.6-5.5-5-5.5-8.9
			c0-3.2,1.5-6,3.8-7.8c-1.7-0.9-3.1-2.4-4-4.1c-0.3,0.6-0.7,1.1-1.2,1.7c-0.2,1-0.8,2-1.5,2.7c1.6,2.2,2.6,5,2.6,8s-1,5.8-2.7,8.1
			c2.6,0.9,4.6,2.8,5.7,5.2C738.2,449.8,739.2,448.1,740.5,446.7z M550.1,460.3c0.8-1.1,1.2-2.5,1.2-4c0-3.9-3.2-7.1-7.1-7.1
			c-3.9,0-7.1,3.2-7.1,7.1c0,3.8,3.1,7,6.9,7.1c-0.8,1.1-1.2,2.5-1.2,4c0,3.9,3.2,7.1,7.1,7.1c3.9,0,7.1-3.2,7.1-7.1
			C557,463.6,553.9,460.4,550.1,460.3z M481.8,477.6c-3.3,0-6,2.7-6,6s2.7,6,6,6s6-2.7,6-6C487.8,480.3,485.1,477.6,481.8,477.6z
			 M771.9,448.1c-2.6,0-4.7,2.1-4.7,4.7s2.1,4.7,4.7,4.7c2.6,0,4.7-2.1,4.7-4.7S774.5,448.1,771.9,448.1z M512.7,462.1
			c-1.2,0-2.2,0.4-3.1,1c0-1.4-0.5-2.7-1.3-3.7c0.1,0,0.3,0,0.4,0c3.9,0,7.1-3.2,7.1-7.1c0-1.5-0.4-2.8-1.2-3.9
			c0.7,0.2,1.4,0.3,2.1,0.3c3.7,0,6.7-3,6.7-6.7s-3-6.7-6.7-6.7s-6.7,3-6.7,6.7c0,1.3,0.4,2.6,1,3.6c-0.7-0.3-1.5-0.4-2.4-0.4
			c-2,0-3.8,0.8-5.1,2.1c-0.1-3.3-2.7-5.9-6-6.1c0.1-0.4,0.1-0.7,0.1-1.1c0-1.6-0.8-2.9-2.1-3.7c0.1,0,0.3,0,0.4,0
			c2.8,0,5.1-2.3,5.1-5.1c0-2.8-2.3-5.1-5.1-5.1c-2.8,0-5.1,2.3-5.1,5.1c0,1.9,1,3.5,2.5,4.4c-0.1,0-0.2,0-0.2,0
			c-2.4,0-4.4,2-4.4,4.4c0,1.9,1.2,3.5,2.9,4.1c-0.6,1-1,2.1-1,3.3c0,1.2,0.3,2.3,0.9,3.2c-0.1,0-0.3,0-0.4,0
			c-2.7,0-4.8,2.2-4.8,4.8c0,2.7,2.2,4.8,4.8,4.8s4.8-2.2,4.8-4.8c0-0.6-0.1-1.2-0.3-1.8c0.5,0.1,0.9,0.2,1.4,0.2
			c1.7,0,3.2-0.6,4.3-1.7v0.1c0,1.9,0.7,3.6,1.9,4.9c-3.3,0-6,2.7-6,6s2.7,6,6,6c1.5,0,3-0.6,4-1.5c0.3,2.6,2.4,4.6,5.1,4.6
			c2.8,0,5.1-2.3,5.1-5.1C517.8,464.4,515.5,462.1,512.7,462.1z M471.7,467.1c-3.1,0-5.6,2.5-5.6,5.6s2.5,5.6,5.6,5.6
			s5.6-2.5,5.6-5.6S474.8,467.1,471.7,467.1z M545.2,441c0-4.8-3.9-8.7-8.7-8.7s-8.7,3.9-8.7,8.7c0,4.8,3.9,8.7,8.7,8.7
			C541.3,449.8,545.2,445.9,545.2,441z M523.3,453.2c-3.3,0-6,2.7-6,6s2.7,6,6,6s6-2.7,6-6S526.7,453.2,523.3,453.2z M856.6,439.8
			c-1.3,0-2.5,0.4-3.5,1.1c-0.1-3.5-2.9-6.3-6.4-6.3s-6.4,2.9-6.4,6.4s2.9,6.4,6.4,6.4c1.3,0,2.6-0.4,3.6-1.1
			c0.1,3.4,2.9,6.2,6.3,6.2c3.5,0,6.4-2.8,6.4-6.4C862.9,442.6,860.1,439.8,856.6,439.8z M867.3,446.8c-2.2,0-3.9,1.8-3.9,3.9
			s1.8,3.9,3.9,3.9c2.2,0,3.9-1.8,3.9-3.9S869.5,446.8,867.3,446.8z M864.5,430.7c0.8,0.4,1.7,0.7,2.7,0.7c3.3,0,6-2.7,6-6
			s-2.7-6-6-6s-6,2.7-6,6c0,0.7,0.1,1.3,0.3,1.9c-0.9-0.5-1.9-0.8-3-0.8c-3.6,0-6.4,2.9-6.4,6.4s2.9,6.4,6.4,6.4s6.4-2.9,6.4-6.4
			C864.9,432.2,864.7,431.4,864.5,430.7z M876.3,416.9c-0.7,0.8-1.2,1.8-1.2,3c0,2.4,2,4.4,4.4,4.4h0.1
			C878.7,421.9,877.6,419.5,876.3,416.9z M567.2,342.9c5.5,0,9.9-4.4,9.9-9.9s-4.4-9.9-9.9-9.9s-9.9,4.4-9.9,9.9
			S561.7,342.9,567.2,342.9z M785.2,461.8c-5.2,0-9.4,4.2-9.4,9.4s4.2,9.4,9.4,9.4s9.4-4.2,9.4-9.4S790.5,461.8,785.2,461.8z
			 M825.8,447.5c-2.1,0-4.1,1-5.3,2.6c-0.7-3.4-3.7-5.9-7.3-5.9c-1.4,0-2.7,0.4-3.8,1c1.3-1.5,2.1-3.4,2.1-5.4
			c0-4.5-3.7-8.2-8.2-8.2s-8.2,3.7-8.2,8.2s3.7,8.2,8.2,8.2c1.6,0,3-0.4,4.3-1.2c-1.1,1.3-1.8,3-1.8,4.9c0,4.1,3.3,7.5,7.5,7.5
			c2.5,0,4.7-1.2,6.1-3.1c0.8,2.9,3.4,5,6.5,5c3.7,0,6.8-3,6.8-6.8C832.5,450.5,829.5,447.5,825.8,447.5z M815.8,460.9
			c-4.3,0-7.8,3.5-7.8,7.8s3.5,7.8,7.8,7.8s7.8-3.5,7.8-7.8C823.7,464.4,820.1,460.9,815.8,460.9z M840.8,458.5c-3.9,0-7,3.1-7,7
			s3.1,7,7,7s7-3.1,7-7S844.6,458.5,840.8,458.5z M854.9,457.1c-2.9,0-5.3,2.4-5.3,5.3s2.4,5.3,5.3,5.3c2.9,0,5.3-2.4,5.3-5.3
			S857.8,457.1,854.9,457.1z M870.7,433.6c-2.8,0-5.1,2.3-5.1,5.1c0,2.8,2.3,5.1,5.1,5.1s5.1-2.3,5.1-5.1S873.5,433.6,870.7,433.6z
			 M528.4,288.8c2,0,3.7-1.6,3.7-3.7c0-2-1.6-3.7-3.7-3.7s-3.7,1.6-3.7,3.7C524.8,287.2,526.4,288.8,528.4,288.8z M513.2,339.2
			c3.2,0,5.7-2.6,5.7-5.7s-2.6-5.7-5.7-5.7c-3.2,0-5.7,2.6-5.7,5.7S510,339.2,513.2,339.2z M524.1,322c3.1,0,5.5-2.5,5.5-5.5
			c0-3.1-2.5-5.5-5.5-5.5c-3.1,0-5.5,2.5-5.5,5.5S521,322,524.1,322z M513.3,398.5c4.5,0,8.1-3.6,8.1-8.1s-3.6-8.1-8.1-8.1
			s-8.1,3.6-8.1,8.1C505.3,394.9,508.9,398.5,513.3,398.5z M491.5,401.3c0,4.2,3.4,7.6,7.6,7.6s7.6-3.4,7.6-7.6s-3.4-7.6-7.6-7.6
			C494.9,393.7,491.5,397.1,491.5,401.3z M501,425.7c0,4.3,3.5,7.8,7.8,7.8s7.8-3.5,7.8-7.8s-3.5-7.8-7.8-7.8S501,421.4,501,425.7z
			 M565.7,377.5c3.4,0,6.4-1.8,8.1-4.4c0.5,1.5,2,2.7,3.7,2.7c2.2,0,3.9-1.8,3.9-3.9c0-2.2-1.8-3.9-3.9-3.9c-0.8,0-1.6,0.2-2.2,0.7
			c0-0.2,0-0.5,0-0.7c0-5.3-4.3-9.6-9.6-9.6s-9.6,4.3-9.6,9.6C556,373.2,560.4,377.5,565.7,377.5z M570,385.6c-5,0-9,4-9,9
			c0,2.8,1.3,5.4,3.4,7c0.7,1.9,2.5,3.3,4.7,3.3c1.5,0,2.9-0.7,3.8-1.8c3.6-1.2,6.2-4.6,6.2-8.5C579.1,389.6,575,385.6,570,385.6z
			 M542.5,270.8c2.2,0,4-1.8,4-4s-1.8-4-4-4s-4,1.8-4,4S540.3,270.8,542.5,270.8z M545.3,249.5c1.9,0,3.4-1.5,3.4-3.4
			s-1.5-3.4-3.4-3.4s-3.4,1.5-3.4,3.4C541.8,248,543.4,249.5,545.3,249.5z M561,427.1c5.2,0,9.5-4.3,9.5-9.5s-4.3-9.5-9.5-9.5
			c-1.6,0-3.2,0.4-4.5,1.1c-0.1,0-0.2,0-0.3,0c-3.2,0-5.8,2.6-5.8,5.8c0,1.3,0.4,2.5,1.2,3.5C552,423.3,556.1,427.1,561,427.1z
			 M445.3,452.6c-2.6,0.3-4.6,2.5-4.6,5.2c0,2.9,2.3,5.2,5.2,5.2s5.2-2.3,5.2-5.2c0-0.9-0.2-1.7-0.6-2.4c3.1-0.2,5.6-2.7,5.6-5.8
			c0-3.2-2.6-5.9-5.9-5.9c-3.2,0-5.9,2.6-5.9,5.9C444.4,450.7,444.7,451.7,445.3,452.6z M442.8,473.3c-2.7,0-4.9,2.2-4.9,4.9
			c0,2.7,2.2,4.9,4.9,4.9c2.7,0,4.9-2.2,4.9-4.9C447.7,475.5,445.5,473.3,442.8,473.3z M434.6,429.6c-2.5,0-4.6,2-4.6,4.6
			c0,2.5,2,4.6,4.6,4.6c2.5,0,4.6-2,4.6-4.6S437.1,429.6,434.6,429.6z M493.8,364.7c3.5,0,6.4-2.9,6.4-6.4s-2.9-6.4-6.4-6.4
			s-6.4,2.9-6.4,6.4C487.4,361.9,490.2,364.7,493.8,364.7z M468.6,414.2c0-3.2-2.6-5.8-5.8-5.8c-0.4,0-0.8,0-1.1,0.1
			c0.1-0.4,0.1-0.8,0.1-1.3c0-3.2-2.6-5.8-5.8-5.8s-5.8,2.6-5.8,5.8c0,3.2,2.6,5.8,5.8,5.8c0.4,0,0.8,0,1.1-0.1
			c-0.1,0.4-0.1,0.8-0.1,1.3c0,3.2,2.6,5.8,5.8,5.8S468.6,417.4,468.6,414.2z M464.6,435.2c3,0,5.5-2.5,5.5-5.5s-2.5-5.5-5.5-5.5
			s-5.5,2.5-5.5,5.5S461.6,435.2,464.6,435.2z M452.4,485.6c-3.4,0-6.1,2.7-6.1,6.1s2.7,6.1,6.1,6.1s6.1-2.7,6.1-6.1
			S455.8,485.6,452.4,485.6z M475.8,443.6c3.3,0,6-2.7,6-6s-2.7-6-6-6s-6,2.7-6,6C469.9,440.9,472.5,443.6,475.8,443.6z
			 M465.1,479.6c-3.1,0-5.5,2.5-5.5,5.5c0,3.1,2.5,5.5,5.5,5.5s5.5-2.5,5.5-5.5C470.7,482.1,468.2,479.6,465.1,479.6z M438.7,409.6
			c3.2,0,5.7-2.6,5.7-5.7c0-3.2-2.6-5.7-5.7-5.7c-0.1,0-0.1,0-0.2,0c-1.6,3.1-3.1,6-4.6,8.9C434.9,408.6,436.6,409.6,438.7,409.6z
			 M420.8,445.6c-0.7,0-1.3,0.1-1.9,0.4c-0.3,3-0.4,5.8-0.2,8.5c0.6,0.3,1.3,0.5,2.1,0.5c2.6,0,4.7-2.1,4.7-4.7
			S423.4,445.6,420.8,445.6z"/>
		<path class="st9" d="M486,565.7c-45.9,87.8-86.2,144.9-154.3,214.8c-14.4,13.6-5.7,26.5,27.9,16.6
			C398,785.7,506.3,751.7,532,663.9C554,588.9,486,565.7,486,565.7z"/>
		<path class="st10" d="M534.5,653.8c-0.6,3.3-1.5,6.6-2.5,10.1c-17.6,59.9-73.5,94.8-119.5,114.5c66-32,70.7-61.5,70.7-64.7
			c0-3.5-4.7-12.8-18.2-19.8c-12.4-6.4-26.4-16.3-38.5-27.4c2.6-3.7,5.1-7.5,7.6-11.3l36.7-26.8L534.5,653.8z"/>
		<path class="st9" d="M832.9,569.2c37.5,91.7,90.8,173.7,123.1,216.5c13.1,14.8-15.7,22.7-53.3,1.7c-30.7-17.1-96-52.4-129.2-123.1
			S832.9,569.2,832.9,569.2z"/>
		<path class="st10" d="M830.1,731.2c11.4,11.9,33.2,31.4,57,47.5c-30.8-17.8-76.7-48.3-105.9-99.5l40-8.5l46.7-26.1
			c5.6,10.8,11.3,21.2,17,31.4c-7.8-7-12.3-7.4-18.3-4.4c-7,3.5-30.3,20.2-40.4,24.4C816.1,700.1,814.6,714.9,830.1,731.2z"/>
		<g>
			<path class="st11" d="M586.6,269.7c0,0-83.8,299.5-165.9,378.1c-10.5,10.5,52.4,49.8,92.5,52.4c40.2,2.6,8.7-136.2,8.7-136.2
				s19.2,9.6,17.5-48S569.2,363.1,586.6,269.7z"/>
			<path class="st11" d="M742.9,286.3c2.6,20.1,86.4,290.7,133.6,358.8c6.1,7.9-24.4,42.8-98.7,52.4c-76.4,9.9-17.5-136.2-7-193.8
				S747.3,349.2,742.9,286.3z"/>
		</g>
		<path class="st1" d="M876.8,645.6c4.7,8.5-25.4,41.9-96.9,51.7c-27.1-26.2,6.3-131.3,6.3-131.3h13.1c9,20.7,16,50.9,15.4,89.1
			c-0.6,38.1,20.4,25.9,26.8,22.4C847.2,674.3,875.1,660.7,876.8,645.6z M512.4,575.8h-7c-9.9,19.2-18.6,38.4-18,92.6
			c0.3,12.8-7.3,19.8-21.8,13.1c-12.2-5.6-41.2-17.2-45.8-32.1c-3.6,12.2,53.6,47.2,91.9,50.6C525.7,671.9,512.4,575.8,512.4,575.8z
			"/>
		<path class="st2" d="M771.1,432.6c-0.2,0-0.4,0-0.6-0.1c-24.8-11.3-52.1-18.5-81-21.2c-23.2-2.2-47.5-1.5-72.3,1.9
			c-42.3,5.9-71.6,18-71.9,18.1c-0.7,0.3-1.6,0-1.9-0.8c-0.3-0.7,0-1.6,0.8-1.9c0.3-0.1,29.9-12.4,72.5-18.3c25-3.5,49.6-4.1,73-2
			c29.3,2.7,56.9,9.9,82,21.4c0.7,0.3,1.1,1.2,0.7,1.9C772.2,432.3,771.7,432.6,771.1,432.6z"/>
		<path class="st2" d="M555.5,404.4c-0.5,0-0.9-0.3-1.1-0.8c-0.2-0.6,0.1-1.3,0.7-1.5c0.3-0.1,31-11.6,71.8-19.3
			c37.6-7.1,91.7-12.4,135.7,3c0.6,0.2,0.9,0.9,0.7,1.5s-0.9,0.9-1.5,0.7c-24-8.4-66.9-15.7-134.5-2.9
			c-40.5,7.7-71.1,19.1-71.4,19.2C555.8,404.4,555.7,404.4,555.5,404.4z"/>
		<path class="st2" d="M740.3,363.1c-0.2,0-0.4,0-0.6-0.2c-21.2-12-48.7-17.5-82-16.3c-30.9,1.1-60.6,7.6-80.2,12.3
			c-0.6,0.2-1.3-0.2-1.4-0.9c-0.2-0.6,0.2-1.3,0.9-1.4c41.2-10,65.7-11.9,80.6-12.4c33.7-1.2,61.7,4.4,83.2,16.6
			c0.6,0.3,0.8,1,0.4,1.6C741.1,362.9,740.7,363.1,740.3,363.1z"/>
		<path class="st2" d="M526.6,476.6c-0.5,0-1.1-0.2-1.4-0.7c-0.6-0.8-0.4-1.9,0.4-2.4c0.3-0.2,31.4-22.7,77.9-34.3
			c27.3-6.8,54.6-8.5,81-5.1c33,4.2,64.9,16.5,94.6,36.4c0.8,0.5,1,1.6,0.5,2.4s-1.6,1-2.4,0.5c-29.2-19.6-60.6-31.7-93.1-35.9
			c-26-3.3-52.8-1.6-79.7,5c-45.8,11.4-76.4,33.5-76.7,33.7C527.3,476.5,527,476.6,526.6,476.6z"/>
		<path class="st2" d="M519.6,491.7c-0.6,0-1.2-0.3-1.5-0.9c-0.5-0.8-0.2-1.9,0.7-2.4c39.6-22.2,88.9-34.6,139-34.9
			c49.4-0.3,94.9,11.1,128.2,32c0.8,0.5,1.1,1.6,0.5,2.4c-0.5,0.8-1.6,1.1-2.4,0.5c-32.7-20.6-77.5-31.8-126.3-31.5
			c-49.5,0.3-98.3,12.5-137.3,34.4C520.2,491.7,519.9,491.7,519.6,491.7z"/>
		<path class="st2" d="M730.9,350c-0.2,0-0.3,0-0.5-0.1c-22.8-14.5-47.5-20.9-75.6-19.4c-24.6,1.3-48,8.3-69.8,15.4
			c-0.5,0.1-1-0.1-1.1-0.6s0.1-1,0.6-1.1c21.9-7.1,45.4-14.2,70.2-15.5c28.4-1.5,53.5,4.9,76.6,19.6c0.4,0.3,0.5,0.8,0.3,1.2
			C731.5,349.8,731.2,350,730.9,350z"/>
		<path class="st2" d="M728.6,327.3c-0.1,0-0.2,0-0.4-0.1c-16.8-7.8-46.5-15.9-92.2-10.8c-27.4,3.1-47.8,9.6-48,9.6
			c-0.5,0.1-1-0.1-1.1-0.6s0.1-1,0.6-1.1c0.2-0.1,20.8-6.6,48.3-9.7c25.5-2.9,62.3-3.3,93.2,10.9c0.4,0.2,0.6,0.7,0.4,1.2
			C729.3,327.1,728.9,327.3,728.6,327.3z"/>
		<path class="st12" d="M745.5,746.7c0,0-116.9,132-174.6,90.8c-47.1-33.6-35-241.2-51.2-248c-36.1-15.1-31.4-59.4,5.8-83.8
			s67.9-63.1,132.7-72.2c58.2-8.1,81.5,15.1,102.4,43.1c21,27.9,78,74.5,21,102.4C724.5,607,745.5,746.7,745.5,746.7z"/>
		<path class="st13" d="M799.7,565.8c-3.9,4.7-9.8,9.2-18.1,13.3c-33.3,16.3-40,70.7-39.8,113.1c-4.8,6.1-7.9,9.7-7.9,9.7
			l-164.4,124l-36.8-135.5c-4-51.8-5.5-97.7-13-100.8c-8.2-3.5-14.3-8.4-18.4-14.3c14.1-25.1,39.1-48.9,67.9-63.1
			c0,0-8.1,29.7-2.6,68.7c3.2-39.3,12.2-61.1,22.7-72.2c0,0,27.4-3.5,41.9-8.1c14.6-4.7,68.4-19.5,98.1,8.7
			C729.2,509.2,784.3,529.4,799.7,565.8z"/>
		<path class="st14" d="M806.2,764.8c-3.1-44.4,23.1-176.4-20.5-215.7c-13.9-12.5-29.6-23.5-49.7-31.3c2.5,66.5-10.3,159-10.3,159
			c7.4-66.9,3-136.8,0.9-162.3c-19.8-6.2-43.5-9.3-73.1-7.7c-21.4,1.1-43.4,3.8-62.9,8.7c-12.2,15.7-21.5,51.4-15.1,117
			c8.1,83.8-2.3,165.3-2.3,165.3s9.3-102.4-8.1-186.3c-8.5-40.6-9.3-67-7.9-83.4c-3,1.7-5.9,3.5-8.4,5.4
			c-23.3,17.5-52,36.7-55.5,91.4s0.3,127.2-4.4,145.8c-4.7,18.6-13.8,63-7,82.9c11.6,33.7,75.6,72.7,153.6,70.4s167.6-37,178.7-76
			C821.6,821.8,809.3,808.4,806.2,764.8z"/>
		<path class="st15" d="M601.1,528.9c3.4,0,6.1,2.7,6.1,6.1s-2.7,6.1-6.1,6.1s-6.1-2.7-6.1-6.1S597.7,528.9,601.1,528.9z
			 M619.1,514.6c0-2.1-1.7-3.8-3.8-3.8s-3.8,1.7-3.8,3.8s1.7,3.8,3.8,3.8S619.1,516.7,619.1,514.6z M593.6,616.6
			c-1.9,0-3.4,1.5-3.4,3.4s1.5,3.4,3.4,3.4s3.4-1.5,3.4-3.4S595.5,616.6,593.6,616.6z M571.5,843.3c0,0.9,0.7,1.5,1.5,1.5
			c0.9,0,1.5-0.7,1.5-1.5c0-0.9-0.7-1.5-1.5-1.5C572.2,841.7,571.5,842.4,571.5,843.3z M578.7,587.2c3,0,5.3-2.4,5.3-5.3
			s-2.4-5.3-5.3-5.3c-2.3,0-4.3,1.5-5,3.5c0,1.1-0.1,2.2-0.1,3.3C574.2,585.6,576.3,587.2,578.7,587.2z M613.6,733.5
			c0,1.6,1.3,2.9,2.9,2.9c1.6,0,2.9-1.3,2.9-2.9s-1.3-2.9-2.9-2.9C614.9,730.6,613.6,731.9,613.6,733.5z M640.9,509
			c0,1.4,1.2,2.6,2.6,2.6s2.6-1.2,2.6-2.6c0-0.6-0.2-1.2-0.6-1.6c-1.4,0.1-2.8,0.2-4.3,0.3C641,508.1,640.9,508.5,640.9,509z
			 M612.2,612.7c-2.3,0-4.1,1.8-4.1,4.1s1.8,4.1,4.1,4.1s4.1-1.8,4.1-4.1S614.5,612.7,612.2,612.7z M593.5,569
			c0,3.2,2.6,5.8,5.8,5.8c0.1,0,0.2,0,0.3,0c-0.8,1-1.2,2.2-1.2,3.5c0,3.1,2.5,5.5,5.5,5.5s5.5-2.5,5.5-5.5c0-3.1-2.5-5.5-5.5-5.5
			c-0.1,0-0.1,0-0.2,0c0.8-1,1.4-2.3,1.4-3.7c0-3.2-2.6-5.8-5.8-5.8S593.5,565.8,593.5,569z M596.4,671.7c-1.6,0-2.8,1.3-2.8,2.8
			s1.3,2.8,2.8,2.8c1.6,0,2.8-1.3,2.8-2.8S598,671.7,596.4,671.7z M600.8,632.3c0-1.6-1.3-3-3-3c-1.6,0-3,1.3-3,3c0,1.6,1.3,3,3,3
			S600.8,634,600.8,632.3z M598.1,693.6c0-1.5-1.2-2.7-2.7-2.7s-2.7,1.2-2.7,2.7s1.2,2.7,2.7,2.7S598.1,695.1,598.1,693.6z
			 M596.3,710.8c1.8,0,3.3-1.5,3.3-3.3s-1.5-3.3-3.3-3.3s-3.3,1.5-3.3,3.3S594.4,710.8,596.3,710.8z M604,645.5c0,2.2,1.8,4,4,4
			s4-1.8,4-4s-1.8-4-4-4S604,643.3,604,645.5z M607.5,520.3c-2.8,0-5.1,2.3-5.1,5.1s2.3,5.1,5.1,5.1s5.1-2.3,5.1-5.1
			S610.3,520.3,607.5,520.3z M691.7,511.7c0-2.2-1.8-3.9-3.9-3.9s-3.9,1.8-3.9,3.9c0,2.2,1.8,3.9,3.9,3.9S691.7,513.9,691.7,511.7z
			 M676.7,530.6c0,3,2.4,5.5,5.5,5.5s5.5-2.4,5.5-5.5c0-2.9-2.2-5.2-5.1-5.4c0.9-0.8,1.5-2,1.5-3.3c0-2.5-2-4.5-4.5-4.5
			s-4.5,2-4.5,4.5c0,2.2,1.7,4.1,3.8,4.4C677.6,527.3,676.7,528.8,676.7,530.6z M674.5,509.4c0,1.9,1.5,3.5,3.5,3.5
			c1.9,0,3.5-1.5,3.5-3.5c0-1.1-0.5-2-1.2-2.6c-1.4-0.1-2.8-0.1-4.2-0.2C675.1,507.2,674.5,508.2,674.5,509.4z M630.3,552.6
			c-3.7,0-6.7,3-6.7,6.7s3,6.7,6.7,6.7s6.7-3,6.7-6.7S634,552.6,630.3,552.6z M667.5,520.9c0,1.9,1.6,3.5,3.5,3.5s3.5-1.6,3.5-3.5
			s-1.6-3.5-3.5-3.5S667.5,519,667.5,520.9z M706.2,515.6c0,2.1,1.7,3.7,3.7,3.7c2.1,0,3.7-1.7,3.7-3.7c0-2.1-1.7-3.7-3.7-3.7
			C707.8,511.8,706.2,513.5,706.2,515.6z M719,520.7c0,1.6,1.3,2.9,2.9,2.9c1.6,0,2.9-1.3,2.9-2.9c0-1.6-1.3-2.9-2.9-2.9
			C720.3,517.7,719,519,719,520.7z M664.2,511.6c0-1.7-1.3-3-3-3s-3,1.3-3,3c0,1.7,1.3,3,3,3S664.2,513.2,664.2,511.6z M636,537.9
			c3,0,5.4-2.4,5.4-5.4s-2.4-5.4-5.4-5.4s-5.4,2.4-5.4,5.4S633.1,537.9,636,537.9z M659.3,549.3c3.3,0,5.9-2.6,5.9-5.9
			s-2.6-5.9-5.9-5.9h-0.1c0.2-0.6,0.3-1.2,0.3-1.8c0-3.3-2.7-6-6-6s-6,2.7-6,6s2.7,6,6,6c0.1,0,0.1,0,0.2,0
			c-0.2,0.5-0.3,1.1-0.3,1.7C653.4,546.7,656,549.3,659.3,549.3z M649.8,512.7c0,1.5,1.2,2.7,2.7,2.7s2.7-1.2,2.7-2.7
			s-1.2-2.7-2.7-2.7S649.8,511.2,649.8,512.7z M636.1,511.3c0-1.5-1.2-2.7-2.7-2.7s-2.7,1.2-2.7,2.7s1.2,2.7,2.7,2.7
			S636.1,512.8,636.1,511.3z M647.4,520.8c0-2.1-1.7-3.8-3.8-3.8c-0.4,0-0.7,0.1-1,0.1c0.3-0.5,0.5-1,0.5-1.6c0-1.5-1.3-2.8-2.8-2.8
			s-2.8,1.3-2.8,2.8s1.3,2.8,2.8,2.8c0.2,0,0.3,0,0.5,0c-0.6,0.7-1,1.6-1,2.5c0,2.1,1.7,3.8,3.8,3.8
			C645.6,524.6,647.4,522.9,647.4,520.8z M657.6,520.4c0-1.9-1.5-3.4-3.4-3.4s-3.4,1.5-3.4,3.4s1.5,3.4,3.4,3.4
			S657.6,522.2,657.6,520.4z M615.1,597.8c0-2.4-1.9-4.3-4.3-4.3c-2.4,0-4.3,1.9-4.3,4.3c0,2.4,1.9,4.3,4.3,4.3
			C613.1,602.1,615.1,600.2,615.1,597.8z M611.5,658.6c0-2.1-1.7-3.8-3.8-3.8s-3.8,1.7-3.8,3.8s1.7,3.8,3.8,3.8
			S611.5,660.7,611.5,658.6z M611.2,683.3c1.1,0,1.9-0.9,1.9-1.9s-0.9-1.9-1.9-1.9c-1.1,0-1.9,0.9-1.9,1.9S610.1,683.3,611.2,683.3z
			 M625.7,530.7c0-3-2.4-5.5-5.5-5.5s-5.5,2.4-5.5,5.5c0,3,2.4,5.5,5.5,5.5S625.7,533.7,625.7,530.7z M619.1,542.9
			c0-3.6-2.9-6.5-6.5-6.5s-6.5,2.9-6.5,6.5s2.9,6.5,6.5,6.5C616.2,549.3,619.1,546.4,619.1,542.9z M604.2,769.6
			c1.5,0,2.8-1.2,2.8-2.8s-1.2-2.8-2.8-2.8c-1.5,0-2.8,1.2-2.8,2.8S602.6,769.6,604.2,769.6z M597.1,742.1c0-1.6-1.3-2.9-2.9-2.9
			s-2.9,1.3-2.9,2.9c0,1.6,1.3,2.9,2.9,2.9S597.1,743.7,597.1,742.1z M599.1,791.8c1.7,0,3-1.3,3-3s-1.3-3-3-3s-3,1.3-3,3
			S597.5,791.8,599.1,791.8z M577.9,563.3c3.3,0,5.9-2.7,5.9-5.9s-2.7-5.9-5.9-5.9c-0.4,0-0.7,0-1.1,0.1c-0.6,3.5-1.2,7.2-1.7,11.1
			C575.9,563,576.9,563.3,577.9,563.3z M587.6,798.7c0,0.7,0.6,1.3,1.3,1.3s1.3-0.6,1.3-1.3s-0.6-1.3-1.3-1.3S587.6,798,587.6,798.7
			z M561.7,850.6c0,1,0.8,1.9,1.9,1.9c1,0,1.9-0.8,1.9-1.9s-0.8-1.9-1.9-1.9C562.6,848.7,561.7,849.6,561.7,850.6z M626.9,515.7
			c0-1.9-1.5-3.4-3.4-3.4s-3.4,1.5-3.4,3.4s1.5,3.4,3.4,3.4S626.9,517.6,626.9,515.7z M620.9,576.7c-3.1,0-5.6,2.5-5.6,5.6
			s2.5,5.6,5.6,5.6s5.6-2.5,5.6-5.6C626.6,579.2,624,576.7,620.9,576.7z M582.6,545.8c-0.5,0.9-0.8,1.9-0.8,3c0,3.6,2.9,6.4,6.4,6.4
			c1.1,0,2.1-0.3,3-0.7c0.7,2.4,3,4.1,5.6,4.1c3.3,0,5.9-2.6,5.9-5.9c0-3.3-2.6-5.9-5.9-5.9c-0.8,0-1.6,0.2-2.4,0.5
			c-0.6-2.5-2.5-4.4-5-4.9c0.4-0.8,0.6-1.7,0.6-2.6c0-3.4-2.7-6.1-6.1-6.1c-1.1,0-2.2,0.3-3.1,0.8c-0.8,2.5-1.6,5.2-2.3,8
			C579.5,544.3,580.9,545.4,582.6,545.8z M586.7,521.5c0.9,1.5,2.6,2.6,4.5,2.6c2.2,0,4.1-1.3,4.9-3.2c0.8,1.4,2.4,2.4,4.2,2.4
			c2.7,0,4.8-2.2,4.8-4.8s-2.2-4.8-4.8-4.8c-1.9,0-3.6,1.1-4.3,2.7c-0.4-0.7-0.9-1.3-1.5-1.7c-1.3,0.3-2.6,0.6-3.8,0.9
			C589.3,517.3,588,519.3,586.7,521.5z M588.5,638.1c-1.6,0-2.8,1.3-2.8,2.8c0,1.6,1.3,2.8,2.8,2.8c1.6,0,2.8-1.3,2.8-2.8
			C591.3,639.4,590.1,638.1,588.5,638.1z M595,764.7c0-2-1.6-3.6-3.6-3.6s-3.6,1.6-3.6,3.6s1.6,3.6,3.6,3.6S595,766.7,595,764.7z
			 M594.8,658.5c0-1.8-1.4-3.2-3.2-3.2s-3.2,1.4-3.2,3.2s1.4,3.2,3.2,3.2C593.4,661.8,594.8,660.3,594.8,658.5z M596.5,727.7
			c2.2,0,4-1.8,4-4s-1.8-4-4-4s-4,1.8-4,4S594.3,727.7,596.5,727.7z M586.3,725c2,0,3.6-1.6,3.6-3.6s-1.6-3.6-3.6-3.6
			s-3.6,1.6-3.6,3.6S584.4,725,586.3,725z M585.6,627.1c0,1.5,1.3,2.8,2.8,2.8s2.8-1.3,2.8-2.8s-1.3-2.8-2.8-2.8
			S585.6,625.6,585.6,627.1z M603.5,653.1c0-1.9-1.5-3.4-3.4-3.4s-3.4,1.5-3.4,3.4s1.5,3.4,3.4,3.4S603.5,655,603.5,653.1z
			 M582.9,691.2c0,1.6,1.3,2.9,2.9,2.9s2.9-1.3,2.9-2.9c0-1.6-1.3-2.9-2.9-2.9S582.9,689.6,582.9,691.2z M592.1,668
			c0-1.7-1.4-3.1-3.1-3.1c-1.7,0-3.1,1.4-3.1,3.1c0,1.7,1.4,3.1,3.1,3.1C590.7,671.1,592.1,669.7,592.1,668z M584.7,828.3
			c1.3,0,2.4-1.1,2.4-2.4c0-1.3-1.1-2.4-2.4-2.4s-2.4,1.1-2.4,2.4C582.4,827.2,583.4,828.3,584.7,828.3z M590.3,753.4
			c0-1.3-1-2.3-2.3-2.3s-2.3,1-2.3,2.3s1,2.3,2.3,2.3S590.3,754.7,590.3,753.4z M584,809.8c1,0,1.8-0.8,1.8-1.8s-0.8-1.8-1.8-1.8
			s-1.8,0.8-1.8,1.8S583,809.8,584,809.8z M580.3,820c1.1,0,2-0.9,2-2s-0.9-2-2-2s-2,0.9-2,2S579.2,820,580.3,820z M583.1,599.3
			c0,2,1.7,3.7,3.7,3.7s3.7-1.7,3.7-3.7s-1.7-3.7-3.7-3.7S583.1,597.2,583.1,599.3z M588.4,584.3c0,2.7,2.2,4.8,4.8,4.8
			c2.7,0,4.8-2.2,4.8-4.8c0-2.7-2.2-4.8-4.8-4.8C590.6,579.4,588.4,581.6,588.4,584.3z"/>
	</g>
</g>
</svg>
